<svg width="16" height="16" xmlns="http://www.w3.org/2000/svg">

 <g>
  <title>background</title>
  <rect fill="none" id="canvas_background" height="18" width="18" y="-1" x="-1"/>
 </g>
 <g>
  <title>Layer 1</title>
  <path fill="#fff" stroke="null" id="svg_1" d="m13.463616,13.003892c0,0 -0.030206,0 0,0l-2.38627,0c-0.332265,0 -0.604119,-0.271854 -0.604119,-0.604119s0.271854,-0.604119 0.604119,-0.604119l2.114417,0l0,-5.437071c0,-0.604119 -0.634325,-1.208238 -1.26865,-1.208238l-9.061785,0c-0.694737,0 -1.147826,0.634325 -1.147826,1.208238l0,5.437071l2.114417,0c0.332265,0 0.604119,0.271854 0.604119,0.604119s-0.271854,0.604119 -0.604119,0.604119l-2.476888,0c-0.15103,0 -0.422883,0 -0.634325,-0.211442c-0.15103,-0.15103 -0.211442,-0.332265 -0.211442,-0.543707l0,-5.89016c0,-1.298856 1.087414,-2.416476 2.356064,-2.416476l9.061785,0c1.329062,0 2.476888,1.11762 2.476888,2.416476l0,5.89016c0,0.181236 -0.060412,0.392677 -0.211442,0.513501c-0.241648,0.211442 -0.543707,0.241648 -0.724943,0.241648z"/>
  <path fill="#fff" stroke="null" id="svg_2" d="m10.756276,15.399598l-6.396761,0c-0.543725,0 -0.959514,-0.415789 -0.959514,-0.959514l0,-5.117409c0,-0.543725 0.415789,-0.959514 0.959514,-0.959514l6.396761,0c0.543725,0 0.959514,0.415789 0.959514,0.959514l0,5.117409c0,0.511741 -0.447773,0.959514 -0.959514,0.959514zm-6.076923,-1.279352l5.757085,0l0,-4.477733l-5.757085,0l0,4.477733z"/>
  <path fill="#fff" stroke="null" id="svg_3" d="m12.459649,4.426318c-0.372456,0 -0.677193,-0.304737 -0.677193,-0.677193l0,-2.031579l-7.449123,0l0,2.031579c0,0.372456 -0.304737,0.677193 -0.677193,0.677193s-0.677193,-0.304737 -0.677193,-0.677193l0,-2.234737c0,-0.677193 0.406316,-1.151228 0.94807,-1.151228l8.126316,0c0.575614,0 1.083509,0.643333 1.083509,1.151228l0,2.234737c0,0.372456 -0.304737,0.677193 -0.677193,0.677193z"/>
  <ellipse stroke="null" ry="0.789474" rx="0.789474" id="svg_4" cy="6.684208" cx="11.289471" stroke-opacity="null" stroke-width="null" fill="#fff"/>
 </g>
</svg>