<svg width="17" height="16" xmlns="http://www.w3.org/2000/svg">

 <g>
  <title>background</title>
  <rect fill="none" id="canvas_background" height="18" width="19" y="-1" x="-1"/>
 </g>
 <g>
  <title>Layer 1</title>
  <g stroke="null" id="svg_1">
   <path stroke="null" id="svg_2" fill="#696969" d="m8.854022,5.109736c1.512704,0 2.744286,1.231582 2.744286,2.744286s-1.231582,2.744286 -2.744286,2.744286s-2.744286,-1.231582 -2.744286,-2.744286s1.231582,-2.744286 2.744286,-2.744286m0,-0.589018c-1.836664,0 -3.333304,1.493963 -3.333304,3.333304s1.49664,3.333304 3.333304,3.333304s3.333304,-1.49664 3.333304,-3.333304s-1.49664,-3.333304 -3.333304,-3.333304l0,0z"/>
   <path stroke="null" id="svg_3" fill="#333333" d="m9.453749,1.589018l0.270413,1.440416c0.04016,0.216866 0.200801,0.393571 0.412312,0.457827c0.307896,0.09103 0.602404,0.211511 0.87014,0.356088c0.088353,0.048192 0.184737,0.069611 0.278445,0.069611c0.117804,0 0.23293,-0.034806 0.331992,-0.101739l1.226227,-0.840689l0.888881,0.888881l-0.835334,1.226227c-0.125836,0.18206 -0.136545,0.417667 -0.032128,0.613114c0.1419,0.262381 0.259703,0.54618 0.348056,0.846043c0.064256,0.211511 0.238284,0.369475 0.45515,0.409635l1.448448,0.27309l0,1.255678l-1.448448,0.270413c-0.216866,0.04016 -0.393571,0.198124 -0.45515,0.409635c-0.09103,0.305218 -0.211511,0.594372 -0.356088,0.862107c-0.104417,0.195447 -0.093707,0.431054 0.032128,0.613114l0.829979,1.212841l-0.888881,0.886204l-1.218195,-0.835334c-0.099062,-0.069611 -0.216866,-0.101739 -0.331992,-0.101739c-0.096385,0 -0.190092,0.024096 -0.278445,0.069611c-0.267735,0.144577 -0.559567,0.262381 -0.862107,0.350733c-0.211511,0.061579 -0.372152,0.238284 -0.412312,0.457827l-0.270413,1.440416l-1.255678,0l-0.27309,-1.45648c-0.04016,-0.214188 -0.195447,-0.390893 -0.406958,-0.45515c-0.291831,-0.09103 -0.570276,-0.206156 -0.827302,-0.345378c-0.088353,-0.048192 -0.184737,-0.069611 -0.281122,-0.069611c-0.117804,0 -0.23293,0.034806 -0.331992,0.101739l-1.202131,0.821947l-0.888881,-0.888881l0.821947,-1.202131c0.123158,-0.18206 0.136545,-0.417667 0.032128,-0.613114c-0.144577,-0.265058 -0.262381,-0.551535 -0.350733,-0.851398c-0.064256,-0.211511 -0.238284,-0.369475 -0.45515,-0.409635l-1.448448,-0.270413l0,-1.255678l1.448448,-0.270413c0.216866,-0.04016 0.390893,-0.198124 0.45515,-0.409635c0.088353,-0.294509 0.203479,-0.575631 0.342701,-0.835334c0.104417,-0.192769 0.09103,-0.428376 -0.032128,-0.610436l-0.832657,-1.218195l0.888881,-0.888881l1.210163,0.827302c0.099062,0.069611 0.216866,0.101739 0.331992,0.101739c0.096385,0 0.192769,-0.024096 0.281122,-0.072289c0.259703,-0.1419 0.540825,-0.259703 0.835334,-0.348056c0.208833,-0.064256 0.366797,-0.238284 0.406958,-0.45515l0.27309,-1.45648l1.255678,0m0.206156,-0.589018l-1.665313,0c-0.157964,0 -0.307896,0.125836 -0.334669,0.278445l-0.310573,1.659959c-0.329314,0.101739 -0.647919,0.23293 -0.945105,0.393571l-1.378837,-0.945105c-0.056224,-0.037483 -0.123158,-0.056224 -0.190092,-0.056224c-0.09103,0 -0.18206,0.032128 -0.243639,0.096385l-1.178035,1.178035c-0.109771,0.109771 -0.128513,0.305218 -0.04016,0.433731l0.95046,1.386869c-0.160641,0.297186 -0.289154,0.615791 -0.388216,0.945105l-1.651926,0.310573c-0.157964,0.032128 -0.283799,0.18206 -0.283799,0.337346l0,1.665313c0,0.157964 0.125836,0.307896 0.278445,0.334669l1.649249,0.310573c0.101739,0.337346 0.23293,0.661306 0.396248,0.963847l-0.939751,1.373482c-0.088353,0.128513 -0.069611,0.32396 0.04016,0.433731l1.178035,1.178035c0.064256,0.064256 0.155286,0.096385 0.243639,0.096385c0.066934,0 0.133868,-0.018741 0.190092,-0.056224l1.373482,-0.939751c0.294509,0.160641 0.607759,0.289154 0.934396,0.390893l0.310573,1.659959c0.029451,0.152609 0.179383,0.278445 0.334669,0.278445l1.665313,0c0.157964,0 0.307896,-0.125836 0.334669,-0.278445l0.307896,-1.643894c0.340024,-0.099062 0.666661,-0.23293 0.974556,-0.396248l1.389546,0.95046c0.056224,0.037483 0.123158,0.056224 0.190092,0.056224c0.09103,0 0.18206,-0.032128 0.243639,-0.096385l1.178035,-1.178035c0.109771,-0.109771 0.128513,-0.305218 0.04016,-0.433731l-0.945105,-1.381514c0.165996,-0.307896 0.302541,-0.634533 0.40428,-0.974556l1.649249,-0.310573c0.152609,-0.029451 0.278445,-0.179383 0.278445,-0.334669l0,-1.665313c0,-0.157964 -0.125836,-0.307896 -0.278445,-0.334669l-1.651926,-0.310573c-0.099062,-0.334669 -0.23293,-0.653274 -0.393571,-0.955815l0.955815,-1.397578c0.088353,-0.128513 0.069611,-0.32396 -0.04016,-0.433731l-1.178035,-1.178035c-0.064256,-0.064256 -0.155286,-0.096385 -0.243639,-0.096385c-0.066934,0 -0.133868,0.018741 -0.190092,0.056224l-1.397578,0.955815c-0.310573,-0.165996 -0.639887,-0.302541 -0.985266,-0.401603l-0.307896,-1.643894c-0.021419,-0.155286 -0.171351,-0.281122 -0.329314,-0.281122l0,0z"/>
  </g>
 </g>
</svg>