<svg width="16" height="15" xmlns="http://www.w3.org/2000/svg">

 <g>
  <title>background</title>
  <rect fill="none" id="canvas_background" height="17" width="18" y="-1" x="-1"/>
 </g>
 <g>
  <title>Layer 1</title>
  <path stroke="null" fill="#696969" id="svg_2" d="m12.906507,8.242577c0.026397,-0.211173 0.046194,-0.425646 0.046194,-0.643418s-0.019797,-0.432245 -0.046194,-0.643418l1.395722,-1.092161c0.125384,-0.098987 0.161679,-0.277165 0.07919,-0.422346l-1.319832,-2.286608c-0.082489,-0.141882 -0.254068,-0.201274 -0.402549,-0.141882l-1.643191,0.663215c-0.339857,-0.260667 -0.712709,-0.481739 -1.115258,-0.650017l-0.247468,-1.748777c-0.029696,-0.15508 -0.164979,-0.277165 -0.329958,-0.277165l-2.639663,0c-0.164979,0 -0.300262,0.122084 -0.326658,0.277165l-0.247468,1.748777c-0.402549,0.168279 -0.775401,0.386051 -1.115258,0.650017l-1.643191,-0.663215c-0.148481,-0.056093 -0.320059,0 -0.402549,0.141882l-1.319832,2.286608c-0.082489,0.141882 -0.046194,0.320059 0.07919,0.422346l1.392422,1.092161c-0.026397,0.211173 -0.046194,0.425646 -0.046194,0.643418s0.019797,0.432245 0.046194,0.643418l-1.392422,1.092161c-0.125384,0.098987 -0.161679,0.277165 -0.07919,0.422346l1.319832,2.286608c0.082489,0.141882 0.254068,0.201274 0.402549,0.141882l1.643191,-0.663215c0.339857,0.260667 0.712709,0.481739 1.115258,0.650017l0.247468,1.748777c0.026397,0.15508 0.161679,0.277165 0.326658,0.277165l2.639663,0c0.164979,0 0.300262,-0.122084 0.326658,-0.277165l0.247468,-1.748777c0.402549,-0.168279 0.775401,-0.386051 1.115258,-0.650017l1.643191,0.663215c0.148481,0.056093 0.320059,0 0.402549,-0.141882l1.319832,-2.286608c0.082489,-0.141882 0.046194,-0.320059 -0.07919,-0.422346l-1.392422,-1.092161zm-4.903175,1.666288c-1.276937,0 -2.309706,-1.032768 -2.309706,-2.309706s1.032768,-2.309706 2.309706,-2.309706s2.309706,1.032768 2.309706,2.309706s-1.032768,2.309706 -2.309706,2.309706z"/>
 </g>
</svg>