<svg width="16" height="16" xmlns="http://www.w3.org/2000/svg">
 <title/>
 <desc/>

 <g>
  <title>background</title>
  <rect fill="none" id="canvas_background" height="18" width="18" y="-1" x="-1"/>
 </g>
 <g>
  <title>Layer 1</title>
  <g stroke="null" id="Page-1" fill-rule="evenodd" fill="none">
   <g stroke="null" id="Icons-AV" fill="#000000">
    <g stroke="null" id="loop">
     <path stroke="null" fill="#4c4c4c" id="Shape" d="m7.977216,2.24812l0,-2.24812l-3.362041,2.997494l3.362041,2.997494l0,-2.24812c2.773684,0 5.043062,2.023308 5.043062,4.496241c0,0.749373 -0.252153,1.498747 -0.588357,2.098246l1.260766,1.12406c0.588357,-0.974185 1.008612,-2.023308 1.008612,-3.222306c0,-3.297243 -3.025837,-5.994988 -6.724083,-5.994988l0,0zm0,10.491228c-2.773684,0 -5.043062,-2.023308 -5.043062,-4.496241c0,-0.749373 0.252153,-1.498747 0.588357,-2.098246l-1.260766,-1.12406c-0.588357,0.974185 -1.008612,2.023308 -1.008612,3.222306c0,3.297243 3.025837,5.994988 6.724083,5.994988l0,2.24812l3.362041,-2.997494l-3.362041,-2.997494l0,2.24812l0,0z"/>
    </g>
   </g>
  </g>
 </g>
</svg>